<svg height="512" viewBox="0 0 64 64" width="512" xmlns="http://www.w3.org/2000/svg"><g id="Finance"><path d="m10 56h18v2h-18z"/><path d="m6 56h2v2h-2z"/><path d="m30 56h2v2h-2z"/><path d="m40.471 54.148h2v4h-2z" transform="matrix(.966 -.259 .259 .966 -13.123 12.651)"/><path d="m35 23a4 4 0 0 1 4 4h2a6.006 6.006 0 0 0 -5-5.91v-2.09h-2v2.09a6 6 0 0 0 1 11.91 4 4 0 1 1 -4 4h-2a6.006 6.006 0 0 0 5 5.91v2.09h2v-2.09a6 6 0 0 0 -1-11.91 4 4 0 0 1 0-8z"/><path d="m36 11.05v-6.05a3.009 3.009 0 0 0 -3-3h-28a3.009 3.009 0 0 0 -3 3v54a3.009 3.009 0 0 0 3 3h28a3.009 3.009 0 0 0 3-3v-6.05a20.973 20.973 0 0 0 0-41.9zm-7.28-7.05-.31 1.24a1 1 0 0 1 -.97.76h-16.88a1 1 0 0 1 -.97-.76l-.31-1.24zm5.28 55a1 1 0 0 1 -1 1h-28a1 1 0 0 1 -1-1v-54a1 1 0 0 1 1-1h2.22l.43 1.73a3 3 0 0 0 2.91 2.27h16.88a3 3 0 0 0 2.91-2.27l.43-1.73h2.22a1 1 0 0 1 1 1v6.05a20.973 20.973 0 0 0 0 41.9zm1-8a19 19 0 1 1 19-19 19.017 19.017 0 0 1 -19 19z"/><path d="m35 15a17 17 0 1 0 17 17 17.024 17.024 0 0 0 -17-17zm0 32a15 15 0 1 1 15-15 15.018 15.018 0 0 1 -15 15z"/><path d="m39.47 6.852h4v2h-4z" transform="matrix(.259 -.966 .966 .259 23.153 45.877)"/><path d="m45.5 9.349h4v2h-4z" transform="matrix(.5 -.866 .866 .5 14.791 46.314)"/><path d="m50.678 13.322h4v2h-4z" transform="matrix(.707 -.707 .707 .707 5.302 41.444)"/><path d="m54.651 18.5h4v2h-4z" transform="matrix(.866 -.5 .5 .866 -2.161 30.936)"/><path d="m57.148 24.53h4v2h-4z" transform="matrix(.966 -.259 .259 .966 -4.593 16.184)"/><path d="m58 31h4v2h-4z"/><path d="m58.148 36.47h2v4h-2z" transform="matrix(.259 -.966 .966 .259 6.676 85.642)"/><path d="m55.65 42.5h2v4h-2z" transform="matrix(.5 -.866 .866 .5 -10.212 71.313)"/><path d="m51.678 47.678h2v4h-2z" transform="matrix(.707 -.707 .707 .707 -19.699 51.799)"/><path d="m46.5 51.651h2v4h-2z" transform="matrix(.866 -.5 .5 .866 -20.461 30.936)"/></g></svg>