<svg id="Layer_3" enable-background="new 0 0 64 64" height="512" viewBox="0 0 64 64" width="512" xmlns="http://www.w3.org/2000/svg"><g><path d="m28 60c4.962 0 9-4.038 9-9s-4.038-9-9-9-9 4.038-9 9 4.038 9 9 9zm0-16c3.86 0 7 3.14 7 7s-3.14 7-7 7-7-3.14-7-7 3.14-7 7-7z"/><path d="m26 53h-2c0 1.654 1.346 3 3 3v1h2v-1c1.654 0 3-1.346 3-3s-1.346-3-3-3v-2c.551 0 1 .449 1 1h2c0-1.654-1.346-3-3-3v-1h-2v1c-1.654 0-3 1.346-3 3s1.346 3 3 3v2c-.551 0-1-.449-1-1zm0-4c0-.551.449-1 1-1v2c-.551 0-1-.449-1-1zm3 3c.551 0 1 .449 1 1s-.449 1-1 1z"/><path d="m62 29h-9v-4.08c3.387-.488 6-3.401 6-6.92v-4c0-.552-.448-1-1-1-2.548 0-4.775 1.373-6 3.413-1.225-2.04-3.452-3.413-6-3.413-.552 0-1 .448-1 1v4c0 3.519 2.613 6.432 6 6.92v4.08h-18v-5h3c3.86 0 7-3.14 7-7 0-.552-.448-1-1-1h-4c-1.958 0-3.728.81-5 2.11v-5.169c4.493-.5 8-4.317 8-8.941v-2c0-.552-.448-1-1-1-3.483 0-6.505 1.993-8 4.896-1.495-2.903-4.517-4.896-8-4.896-.552 0-1 .448-1 1v2c0 4.624 3.507 8.441 8 8.941v5.169c-1.272-1.3-3.042-2.11-5-2.11h-4c-.552 0-1 .448-1 1 0 3.86 3.14 7 7 7h3v5h-18v-4.08c3.387-.488 6-3.401 6-6.92v-4c0-.552-.448-1-1-1-2.548 0-4.775 1.373-6 3.413-1.225-2.04-3.452-3.413-6-3.413-.552 0-1 .448-1 1v4c0 3.519 2.613 6.432 6 6.92v4.08h-1c-.552 0-1 .448-1 1v5h-3c-.552 0-1 .448-1 1v3h-3c-.552 0-1 .448-1 1v22c0 .552.448 1 1 1h52c.552 0 1-.448 1-1v-3h3c.552 0 1-.448 1-1v-5h3c.552 0 1-.448 1-1v-22c0-.552-.448-1-1-1zm-5-13.899v2.899c0 2.415-1.721 4.435-4 4.899v-2.899c0-2.415 1.721-4.435 4-4.899zm-10 2.899v-2.899c2.279.464 4 2.485 4 4.899v2.899c-2.279-.464-4-2.484-4-4.899zm-9 0h2.899c-.464 2.279-2.485 4-4.899 4h-2.899c.464-2.279 2.484-4 4.899-4zm-10 4c-2.415 0-4.435-1.721-4.899-4h2.899c2.415 0 4.435 1.721 4.899 4zm11-18.929v.929c0 3.521-2.612 6.442-6 6.929v-.929c0-3.521 2.612-6.442 6-6.929zm-14 .929v-.929c3.388.487 6 3.408 6 6.929v.929c-3.388-.487-6-3.408-6-6.929zm-8 11.101v2.899c0 2.415-1.721 4.435-4 4.899v-2.899c0-2.415 1.721-4.435 4-4.899zm-10 2.899v-2.899c2.279.464 4 2.485 4 4.899v2.899c-2.279-.464-4-2.484-4-4.899zm46 43h-50v-20h50zm4-4h-2v-17c0-.552-.448-1-1-1h-47v-2h50zm4-6h-2v-15c0-.552-.448-1-1-1h-47v-4h50z"/><path d="m6 59h12v-2h-11v-12h11v-2h-12c-.552 0-1 .448-1 1v14c0 .552.448 1 1 1z"/><path d="m51 58v-14c0-.552-.448-1-1-1h-12v2h11v12h-11v2h12c.552 0 1-.448 1-1z"/><path d="m46 54c.552 0 1-.448 1-1v-4c0-.552-.448-1-1-1h-6c-.552 0-1 .448-1 1v4c0 .552.448 1 1 1zm-5-4h4v2h-4z"/><path d="m10 48c-.552 0-1 .448-1 1v4c0 .552.448 1 1 1h6c.552 0 1-.448 1-1v-4c0-.552-.448-1-1-1zm5 4h-4v-2h4z"/></g></svg>